<?xml version="1.0" encoding="utf-8"?>
<!-- Generator: Adobe Illustrator 28.2.0, SVG Export Plug-In . SVG Version: 6.00 Build 0)  -->
<svg version="1.1" id="american-express" xmlns="http://www.w3.org/2000/svg" xmlns:xlink="http://www.w3.org/1999/xlink" x="0px"
	 y="0px" viewBox="0 0 63 21.9" style="enable-background:new 0 0 63 21.9;" xml:space="preserve">
<style type="text/css">
	.st0{fill:#2FABF7;}
	.st1{fill:#228FE0;}
	.st2{fill:#0571C1;}
</style>
<path class="st0" d="M5.4,5.4h2.2L6.5,2.6L5.4,5.4z"/>
<path class="st1" d="M32.7,3c-0.2-0.1-0.5-0.1-0.8-0.1h-2v1.6h2c0.3,0,0.6,0,0.8-0.1S33,4,33,3.7C33.1,3.3,32.9,3.1,32.7,3z"/>
<path class="st2" d="M54.1,0v1.2L53.5,0h-4.7v1.2L48.2,0h-6.4c-1.1,0-2,0.2-2.8,0.6V0h-4.5v0.6C34,0.2,33.4,0,32.6,0H16.5l-1.1,2.5
	L14.3,0H9.2v1.2L8.6,0H4.3l-2,4.7L0,9.9h5.1l0.6-1.6h1.4l0.6,1.6h5.8V8.7L14,9.9h2.9l0.5-1.2v1.2h13.9V7.3h0.2c0.2,0,0.2,0,0.2,0.3
	v2.2h7.2V9.2c0.6,0.3,1.5,0.6,2.7,0.6h3l0.6-1.6h1.4l0.6,1.6H53V8.3l0.9,1.5h4.7V0C58.6,0,54.1,0,54.1,0z M20.3,8.4h-1.7V2.9
	l-2.4,5.5h-1.5l-2.4-5.5v5.5H8.9L8.2,6.9H4.8L4.2,8.5H2.3l3-7.1h2.5l2.8,6.7V1.4h2.7l2.2,4.8l2-4.8h2.8V8.4z M27.1,2.9h-3.9v1.3H27
	v1.4h-3.8V7h3.9v1.5h-5.6V1.4h5.6C27.1,1.4,27.1,2.9,27.1,2.9z M34.6,5.8c0.2,0.4,0.3,0.7,0.3,1.3v1.4h-1.7V7.6c0-0.4,0-1-0.3-1.4
	c-0.3-0.3-0.6-0.3-1.2-0.3h-1.8v2.6h-1.7V1.4H32c0.9,0,1.5,0,2,0.3s0.8,0.8,0.8,1.6c0,1.1-0.7,1.7-1.2,1.9
	C34.1,5.3,34.4,5.6,34.6,5.8z M37.6,8.4h-1.7V1.3h1.7V8.4z M57.3,8.4h-2.4l-3.2-5.3v5.3h-3.4l-0.6-1.5h-3.5l-0.6,1.6h-1.9
	c-0.8,0-1.8-0.2-2.4-0.8c-0.6-0.6-0.9-1.4-0.9-2.7c0-1,0.2-2,0.9-2.8c0.5-0.6,1.4-0.8,2.5-0.8h1.6v1.5h-1.6c-0.6,0-0.9,0.1-1.3,0.4
	C40.2,3.6,40,4.2,40,4.9c0,0.8,0.1,1.3,0.5,1.7C40.8,6.9,41.2,7,41.7,7h0.7l2.3-5.5h2.5L50,8.2V1.5h2.5l2.9,4.9V1.5h1.7v6.9
	L57.3,8.4z"/>
<path class="st1" d="M44.8,5.4h2.3L46,2.6L44.8,5.4z M27.8,19.8v-5.7l-2.6,2.8L27.8,19.8z"/>
<path class="st0" d="M17.1,14.8v1.3h3.7v1.4h-3.7V19h4.1l1.9-2.1l-1.8-2.1L17.1,14.8z"/>
<path class="st1" d="M31.6,14.8h-2.1v1.8h2.2c0.6,0,1-0.3,1-0.9C32.6,15.1,32.2,14.8,31.6,14.8z"/>
<path class="st2" d="M62.5,16.5V12h-4.2c-0.9,0-1.6,0.2-2.1,0.6V12h-4.6c-0.7,0-1.6,0.2-2,0.6V12h-8.1v0.6c-0.6-0.5-1.7-0.6-2.2-0.6
	h-5.4v0.6c-0.5-0.5-1.7-0.6-2.3-0.6h-6l-1.4,1.5L22.9,12h-9v9.8h8.8l1.4-1.5l1.3,1.5h5.4v-2.3h0.7c0.7,0,1.6,0,2.3-0.3v2.7h4.5v-2.6
	h0.2c0.3,0,0.3,0,0.3,0.3v2.3h13.6c0.9,0,1.8-0.2,2.3-0.6v0.6H59c0.9,0,1.8-0.1,2.4-0.5c1-0.6,1.6-1.7,1.6-3
	C63,17.7,62.8,17,62.5,16.5z M31.5,18.1h-2v2.4h-3.2l-2-2.3l-2.1,2.3h-6.6v-7.1h6.7l2,2.3l2.1-2.3h5.3c1.3,0,2.8,0.4,2.8,2.3
	C34.4,17.7,33,18.1,31.5,18.1z M41.5,17.7c0.2,0.3,0.3,0.7,0.3,1.3v1.4h-1.7v-0.9c0-0.4,0-1.1-0.3-1.4c-0.2-0.3-0.6-0.3-1.2-0.3
	h-1.8v2.6h-1.7v-7.1h3.8c0.8,0,1.5,0,2,0.3s0.9,0.8,0.9,1.6c0,1.1-0.7,1.7-1.2,1.9C41.1,17.3,41.4,17.5,41.5,17.7z M48.4,14.8h-3.9
	v1.3h3.8v1.4h-3.8v1.4h3.9v1.5h-5.6v-7.1h5.6C48.4,13.3,48.4,14.8,48.4,14.8z M52.6,20.4h-3.2v-1.5h3.2c0.3,0,0.5,0,0.7-0.2
	c0.1-0.1,0.2-0.3,0.2-0.5s-0.1-0.4-0.2-0.5c-0.1-0.1-0.3-0.2-0.6-0.2c-1.6-0.1-3.5,0-3.5-2.2c0-1,0.6-2.1,2.4-2.1h3.3v1.7h-3.1
	c-0.3,0-0.5,0-0.7,0.1s-0.2,0.3-0.2,0.5c0,0.3,0.2,0.4,0.4,0.5s0.4,0.1,0.6,0.1h0.9c0.9,0,1.5,0.2,1.9,0.6c0.3,0.3,0.5,0.8,0.5,1.5
	C55.2,19.7,54.3,20.4,52.6,20.4z M61.2,19.7c-0.4,0.4-1.1,0.7-2.1,0.7h-3.2v-1.5h3.2c0.3,0,0.5,0,0.7-0.2c0.1-0.1,0.2-0.3,0.2-0.5
	s-0.1-0.4-0.2-0.5c-0.1-0.1-0.3-0.2-0.6-0.2c-1.6-0.1-3.5,0-3.5-2.2c0-1,0.6-2.1,2.4-2.1h3.3v1.7h-3c-0.3,0-0.5,0-0.7,0.1
	s-0.2,0.3-0.2,0.5c0,0.3,0.1,0.4,0.4,0.5c0.2,0.1,0.4,0.1,0.6,0.1h0.9c0.9,0,1.5,0.2,1.9,0.6c0.1,0,0.1,0.1,0.1,0.1
	c0.3,0.4,0.4,0.9,0.4,1.4C61.8,18.8,61.6,19.3,61.2,19.7z"/>
<path class="st1" d="M39.7,15c-0.2-0.1-0.5-0.1-0.8-0.1h-2v1.6h2c0.3,0,0.6,0,0.8-0.1S40,16,40,15.7C40.1,15.3,39.9,15.1,39.7,15z"
	/>
<g>
	<path class="st1" d="M32.7,3c-0.2-0.1-0.5-0.1-0.8-0.1h-2v1.6h2c0.3,0,0.6,0,0.8-0.1S33,4,33,3.7C33.1,3.3,32.9,3.1,32.7,3z
		 M44.8,5.4h2.3L46,2.6L44.8,5.4z M27.8,19.8v-5.7l-2.6,2.8L27.8,19.8z M31.6,14.8h-2.1v1.8h2.2c0.6,0,1-0.3,1-0.9
		C32.6,15.1,32.2,14.8,31.6,14.8z M39.7,15c-0.2-0.1-0.5-0.1-0.8-0.1h-2v1.6h2c0.3,0,0.6,0,0.8-0.1S40,16,40,15.7
		C40.1,15.3,39.9,15.1,39.7,15z"/>
</g>
<path class="st0" d="M30.9,20.2l-1.4-1.5v1.7h-3.3l-2-2.3L22,20.4h-6.6v-7h6.7l2.1,2.3l1-1.2L22.7,12h-8.8v9.8h8.8l1.5-1.5l1.3,1.5
	h5.4L30.9,20.2z"/>
<g>
	<path class="st0" d="M20.5,9.8l-1.3-1.4h-0.6V7.8l-1.5-1.5l-1,2.1h-1.4l-2.4-5.5v5.5H8.9L8.2,6.9H4.8L4.1,8.4H2.3l3-7h2.5l2.8,6.7
		V1.4h1.5L10.7,0H9.2v1.2L8.7,0H4.3l-2,4.7L0,9.8h5.2l0.6-1.5h1.4l0.7,1.5h5.6V8.6L14,9.8h2.9l0.5-1.2v1.2H20.5z"/>
	<path class="st0" d="M15.9,5.2l-1.6-1.6l1.2,2.6L15.9,5.2z"/>
</g>
<g>
	<path class="st1" d="M61.4,21.3c0.9-0.6,1.5-1.6,1.6-2.7l-1.4-1.4c0.1,0.3,0.2,0.6,0.2,1c0,0.6-0.2,1.1-0.6,1.5
		c-0.4,0.4-1.1,0.7-2.1,0.7h-3.2v-1.5h3.2c0.3,0,0.5,0,0.7-0.2c0.1-0.1,0.2-0.3,0.2-0.5s-0.1-0.4-0.2-0.5c-0.1-0.1-0.3-0.2-0.6-0.2
		c-1.6-0.1-3.5,0-3.5-2.2c0-1,0.6-1.9,2.1-2.1l-1.1-1.1c-0.2,0.1-0.3,0.2-0.4,0.2v-0.6h-4.6c-0.7,0-1.6,0.2-2,0.6v-0.6h-8.2v0.6
		c-0.6-0.5-1.7-0.6-2.2-0.6h-5.4v0.6c-0.5-0.5-1.7-0.6-2.3-0.6h-6l-1.4,1.5l-1.3-1.5h-1.1l3,3l1.5-1.6h5.3c1.3,0,2.8,0.4,2.8,2.3
		c0,2-1.4,2.4-2.9,2.4h-2v1.5l1.5,1.5v-1.5h0.5c0.7,0,1.6,0,2.3-0.3v2.7h4.5v-2.6h0.2c0.3,0,0.3,0,0.3,0.3v2.3h13.6
		c0.9,0,1.8-0.2,2.3-0.6v0.6H59C59.8,21.8,60.7,21.7,61.4,21.3z M41.5,17.7c0.2,0.3,0.3,0.7,0.3,1.3v1.4h-1.7v-0.9
		c0-0.4,0-1.1-0.3-1.4c-0.2-0.3-0.6-0.3-1.2-0.3h-1.8v2.6h-1.7v-7.1h3.8c0.8,0,1.5,0,2,0.3s0.9,0.8,0.9,1.6c0,1.1-0.7,1.7-1.2,1.9
		C41.1,17.3,41.4,17.5,41.5,17.7z M48.4,14.8h-3.9v1.3h3.8v1.4h-3.8v1.4h3.9v1.5h-5.6v-7.1h5.6C48.4,13.3,48.4,14.8,48.4,14.8z
		 M52.6,20.4h-3.2v-1.5h3.2c0.3,0,0.5,0,0.7-0.2c0.1-0.1,0.2-0.3,0.2-0.5s-0.1-0.4-0.2-0.5c-0.1-0.1-0.3-0.2-0.6-0.2
		c-1.6-0.1-3.5,0-3.5-2.2c0-1,0.6-2.1,2.4-2.1h3.3v1.7h-3.1c-0.3,0-0.5,0-0.7,0.1s-0.2,0.3-0.2,0.5c0,0.3,0.2,0.4,0.4,0.5
		s0.4,0.1,0.6,0.1h0.9c0.9,0,1.5,0.2,1.9,0.6c0.3,0.3,0.5,0.8,0.5,1.5C55.2,19.7,54.3,20.4,52.6,20.4z"/>
	<path class="st1" d="M57.4,15.5c0,0.3,0.1,0.4,0.4,0.5c0.2,0.1,0.4,0.1,0.6,0.1h0.9c0.6,0,1,0.1,1.4,0.3l-1.5-1.5h-0.9
		c-0.3,0-0.5,0-0.7,0.1C57.5,15.1,57.4,15.3,57.4,15.5z"/>
</g>
<g>
	<path class="st1" d="M53.9,9.5l0.2,0.3h0.1L53.9,9.5z M48.4,4l1.7,4.1V5.7L48.4,4z"/>
	<path class="st1" d="M31.3,7.3h0.2c0.2,0,0.2,0,0.2,0.3v2.2h7.2V9.2c0.6,0.3,1.5,0.6,2.7,0.6h3l0.6-1.6h1.4l0.6,1.6H53v-1l-1.4-1.4
		v1.1h-3.4l-0.5-1.6h-3.5l-0.6,1.6h-1.9c-0.8,0-1.8-0.2-2.4-0.8c-0.6-0.6-0.9-1.4-0.9-2.7c0-1,0.2-2,0.9-2.8
		c0.5-0.6,1.4-0.8,2.5-0.8h1.6v1.5h-1.6c-0.6,0-0.9,0.1-1.3,0.4C40.2,3.6,40,4.2,40,4.9c0,0.8,0.1,1.3,0.5,1.7
		C40.8,6.9,41.2,7,41.7,7h0.7l2.3-5.5h1l-1.4-1.4h-2.6c-1.1,0-2,0.2-2.8,0.6V0.1h-4.4v0.6c-0.5-0.4-1.1-0.6-1.9-0.6H16.5l-1.1,2.5
		l-1.1-2.5H9.9l1.4,1.4h2L15,5.2l0.6,0.6l1.8-4.4h2.8v7.1h-1.7V3l-1.7,4l2.9,2.9h11.5C31.2,9.9,31.3,7.3,31.3,7.3z M35.9,1.4h1.7
		v7.1h-1.7V1.4z M27.1,2.9h-3.9v1.3H27v1.4h-3.8V7h3.9v1.5h-5.6V1.4h5.6V2.9z M29.9,8.4h-1.7V1.3H32c0.9,0,1.5,0,2,0.3
		s0.8,0.8,0.8,1.6c0,1.1-0.7,1.7-1.2,1.9c0.4,0.1,0.7,0.4,0.8,0.6c0.2,0.4,0.3,0.7,0.3,1.3v1.4H33V7.5c0-0.4,0-1-0.3-1.4
		c-0.1-0.2-0.4-0.2-1-0.2h-1.8C29.9,5.9,29.9,8.4,29.9,8.4z"/>
</g>
</svg>
