<?xml version="1.0" encoding="utf-8"?>
<!-- Generator: Adobe Illustrator 28.2.0, SVG Export Plug-In . SVG Version: 6.00 Build 0)  -->
<svg version="1.1"
	 id="Layer_1" shape-rendering="geometricPrecision" text-rendering="geometricPrecision" image-rendering="optimizeQuality"
	 xmlns="http://www.w3.org/2000/svg" xmlns:xlink="http://www.w3.org/1999/xlink" x="0px" y="0px" viewBox="0 0 3687.8 677.7"
	 style="enable-background:new 0 0 3687.8 677.7;" xml:space="preserve">
<style type="text/css">
	.st0{fill-rule:evenodd;clip-rule:evenodd;fill:#141515;}
	.st1{fill-rule:evenodd;clip-rule:evenodd;fill:#DE2C1D;}
	.st2{fill-rule:evenodd;clip-rule:evenodd;fill:#ED6100;}
	.st3{fill-rule:evenodd;clip-rule:evenodd;fill:#F79F06;}
</style>
<path class="st0" d="M1606.4,257.2c-7.7-7.7-16.8-13.6-27.3-17.9c-10.5-4.3-22-6.4-34.6-6.4c-6.6,0-13.5,0.6-20.7,1.7
	c-7.1,1.1-14.2,3.2-21,6.1s-13.4,6.9-19.6,12c-6.2,5.1-11.6,11.6-16.1,19.3c-7.4-12.2-17.3-21.7-30-28.7
	c-12.6-6.9-27-10.4-43.2-10.4c-5.4,0-11,0.5-16.9,1.4c-5.8,1-11.6,2.7-17.3,5.1c-5.8,2.5-11.3,5.8-16.5,10s-10,9.5-14.2,15.9v-26.7
	h-46v218.8h46.4V336.1c0-9.3,1.4-17.5,4.4-24.8c3-7.2,6.9-13.3,11.8-18.1c4.9-4.9,10.7-8.6,17.3-11c6.6-2.5,13.7-3.8,21.2-3.8
	c15.6,0,27.7,4.9,36.3,14.9c8.6,9.9,12.9,24,12.9,42.5v121.7h46.4V336.2c0-9.3,1.4-17.5,4.4-24.8c3-7.2,6.9-13.3,11.8-18.1
	c4.9-4.9,10.7-8.6,17.3-11c6.6-2.5,13.7-3.8,21.2-3.8c15.6,0,27.7,4.9,36.3,14.9c8.6,9.9,12.9,24,12.9,42.5v121.7h46.4V320.1
	c0-12.8-2.1-24.5-6.3-35.2C1619.9,274,1614,264.8,1606.4,257.2L1606.4,257.2z M2868,297.4c6.1-6.1,13.3-11,21.7-14.4
	c8.4-3.4,17.4-5.1,27.2-5.1c10.8,0,20.7,1.7,29.9,5.1c8.9,3.3,16.6,7.9,23.2,13.8l23-38.2c-8.6-6.9-18.3-12.6-29.1-16.9
	c-14.4-5.8-30-8.8-46.9-8.8c-16.9,0-32.5,3-46.9,8.8c-14.4,5.8-26.8,13.9-37.2,24.2c-10.4,10.3-18.6,22.4-24.6,36.4
	c-5.9,14-9,29.2-9,45.6c0,16.5,3,31.6,9,45.7c5.9,14,14.1,26.1,24.6,36.4c10.4,10.3,22.8,18.3,37.2,24.2c14.4,5.8,30,8.8,46.9,8.8
	c16.9,0,32.5-3,46.9-8.8c10.8-4.4,20.5-10,29.1-16.9l-23-38.2c-6.6,5.8-14.3,10.5-23.2,13.8c-9.2,3.4-19.1,5.1-29.9,5.1
	c-9.7,0-18.8-1.7-27.2-5.1c-8.4-3.4-15.6-8.2-21.7-14.4s-10.9-13.6-14.4-22.1c-3.5-8.6-5.2-18.1-5.2-28.5c0-10.3,1.7-19.9,5.2-28.4
	C2857.1,310.9,2861.9,303.5,2868,297.4L2868,297.4z M3638.2,375.8c-3.2,8.5-7.7,15.9-13.5,22.2c-5.8,6.3-12.7,11.1-20.8,14.7
	c-8.1,3.6-17,5.3-26.9,5.3c-10.4,0-19.6-1.9-27.7-5.6c-8.2-3.8-15-8.7-20.7-15.1c-5.6-6.3-10-13.7-13-22.2c-3-8.5-4.6-17.5-4.6-27.2
	s1.5-18.6,4.6-27.2s7.4-16,13-22.2c5.6-6.3,12.6-11.3,20.7-15.1c8.2-3.8,17.4-5.6,27.7-5.6c9.9,0,18.8,1.8,26.9,5.3
	s15,8.4,20.8,14.7c5.8,6.3,10.3,13.6,13.5,22.2c3.2,8.5,4.8,17.8,4.8,27.9C3642.9,358.1,3641.4,367.3,3638.2,375.8L3638.2,375.8z
	 M3640.1,149.6V265c-7.7-9.7-17-17.5-28.3-23.4c-11.3-5.8-24.8-8.8-40.4-8.8c-15.4,0-29.7,2.8-42.9,8.5
	c-13.2,5.7-24.8,13.6-34.7,23.8c-9.9,10.2-17.7,22.3-23.3,36.4c-5.6,14.1-8.4,29.5-8.4,46.2s2.8,32.1,8.4,46.2
	c5.6,14.1,13.4,26.2,23.3,36.5c9.9,10.2,21.4,18.1,34.7,23.8c13.2,5.7,27.5,8.5,42.9,8.5c15.7,0,29.2-2.9,40.4-8.7
	s20.7-13.6,28.3-23.3v26.2h47.7V149.5h-47.7V149.6z M3417.1,232.8c-13.4,0-25.5,2.5-36.3,7.3c-10.8,4.9-19.9,16.6-27.2,27.1v-28.7
	h-43.3v218.8h43.8V337c0-9.3,1.3-17.6,3.9-24.9s6.1-13.5,10.7-18.5c4.6-5.1,10-8.8,16.5-11.4c6.4-2.6,13.4-3.9,21-3.9
	c5.8,0,12.1,0.7,18.7,2.1c3.4,0.7,6.6,1.5,9.6,2.5l14.1-45.6c-3.8-1.2-7.7-2.2-11.7-3C3431.1,233.3,3424.4,232.8,3417.1,232.8
	L3417.1,232.8z M2753.7,232.8c-13.4,0-25.5,2.5-36.3,7.3c-10.8,4.9-19.9,16.6-27.2,27.1v-28.7h-43.3v218.8h43.8V337
	c0-9.3,1.3-17.6,3.9-24.9c2.6-7.3,6.1-13.5,10.8-18.5s10-8.8,16.5-11.4c6.4-2.6,13.4-3.9,21-3.9c5.8,0,12.1,0.7,18.8,2.1
	c3.4,0.7,6.6,1.5,9.6,2.5l14.1-45.6c-3.8-1.2-7.7-2.2-11.7-3C2767.6,233.3,2761.1,232.8,2753.7,232.8L2753.7,232.8z M2322.8,413.7
	c-7.7,2.9-15.2,4.3-22.7,4.3c-4.9,0-9.4-0.8-13.6-2.3c-4.2-1.5-7.8-3.9-11-7.2c-3.1-3.2-5.6-7.5-7.4-12.6
	c-1.9-5.2-2.7-11.4-2.7-18.7v-95.3h76.6v-43.4h-76.6v-66.2h-48v66.2h-43.6v43.4h43.6v96.1c0,29.1,6.9,50.5,20.7,64.3
	c13.8,13.8,33.1,20.7,57.9,20.7c13.9,0,26.3-2.1,37.3-6.4c7.3-2.8,14.1-6.1,20.4-9.6l-16.3-39.9
	C2332.8,409.5,2328,411.8,2322.8,413.7L2322.8,413.7z M3197.3,375.8c-3.2,8.5-7.7,15.9-13.5,22.2c-5.8,6.3-12.7,11.1-20.8,14.7
	c-8.1,3.6-17,5.3-26.9,5.3c-10.3,0-19.6-1.9-27.7-5.6c-8.2-3.8-15-8.7-20.7-15.1c-5.6-6.3-10-13.7-13-22.2c-3-8.5-4.6-17.5-4.6-27.2
	s1.5-18.6,4.6-27.2s7.4-16,13-22.2c5.6-6.3,12.5-11.3,20.7-15.1s17.4-5.6,27.7-5.6c9.9,0,18.9,1.8,26.9,5.3
	c8.1,3.5,15,8.4,20.8,14.7c5.8,6.3,10.3,13.6,13.5,22.2c3.2,8.5,4.8,17.8,4.8,27.9C3202,358.1,3200.5,367.3,3197.3,375.8
	L3197.3,375.8z M3199.1,265c-7.6-9.7-17-17.5-28.3-23.4c-11.3-5.8-24.8-8.8-40.4-8.8c-15.4,0-29.7,2.8-42.9,8.5
	c-13.2,5.7-24.8,13.6-34.7,23.8c-9.9,10.2-17.7,22.3-23.3,36.4c-5.6,14.1-8.4,29.5-8.4,46.2s2.8,32.1,8.4,46.2
	c5.6,14.1,13.4,26.2,23.3,36.5c9.9,10.2,21.4,18.1,34.7,23.8c13.2,5.7,27.6,8.5,42.9,8.5c15.7,0,29.2-2.9,40.4-8.7
	s20.7-13.6,28.3-23.3v26.2h47.7V238.4h-47.7V265z M2431.5,329.2c1.2-7.9,3.3-15.2,6.4-21.8c3-6.6,7-12.3,11.8-17.1
	c4.8-4.8,10.5-8.4,17.1-11s14.2-3.9,22.7-3.9c15.2,0,27.7,4.7,37.2,14.2c9.6,9.5,15.7,22.7,18.3,39.7L2431.5,329.2L2431.5,329.2z
	 M2565.1,264.7c-9.1-10.1-19.9-18-32.6-23.5c-12.7-5.6-26.6-8.4-41.9-8.4c-16.2,0-30.9,2.7-44.2,8.4c-13.4,5.6-24.8,13.4-34.4,23.5
	c-9.6,10.1-17,22.2-22.4,36.4c-5.3,14.2-8,29.8-8,46.8c0,17.3,2.7,33.1,8.2,47.2c5.5,14.2,13.1,26.2,23,36.3
	c9.9,10,21.7,17.8,35.4,23.3c13.6,5.5,28.7,8.2,45.2,8.2c16.6,0,32.4-2.3,47.4-6.9c15-4.5,29.2-12.6,42.6-24l-23.8-34
	c-9.2,7.3-19.2,13-30.3,17c-11,4-22,6.1-33,6.1c-7.8,0-15.2-1-22.4-3.2c-7.1-2.1-13.6-5.4-19.4-9.9s-10.8-10.3-14.9-17.3
	c-4.1-7-6.9-15.5-8.4-25.3h161.7c0.3-2.7,0.5-5.6,0.7-8.7c0.1-3,0.2-6.1,0.2-9.2c0-17-2.5-32.6-7.7-46.7
	C2581.2,286.9,2574.1,274.8,2565.1,264.7L2565.1,264.7z M2118.2,347.6c-13.4-10.4-32.1-17.4-56-20.9l-22.6-3.5
	c-5.1-0.8-9.7-1.7-14.2-2.6c-4.4-1-8.2-2.3-11.4-4c-3.2-1.7-5.8-3.8-7.7-6.4c-1.9-2.6-2.8-5.8-2.8-9.6c0-7.8,3.6-14.1,10.8-18.8
	c7.2-4.8,17.4-7.1,30.5-7.1c6.9,0,13.6,0.6,20.2,1.8s12.9,2.7,18.8,4.5c5.9,1.8,11.3,3.8,16.2,6.1c4.8,2.2,9,4.3,12.3,6.3l20.5-37.2
	c-11.4-7.3-24.7-13-39.9-17c-15.2-4-31.4-6.1-48.7-6.1c-14,0-26.6,1.7-37.7,4.9c-11.1,3.2-20.6,7.9-28.4,13.9
	c-7.9,6.1-13.9,13.4-18.1,22c-4.2,8.7-6.3,18.4-6.3,29.2c0,17.7,6.3,31.9,18.8,42.8s31.1,18,55.4,21.3l22.8,3
	c13.1,1.8,22.7,4.8,28.8,8.8c6.1,4,9.1,9.2,9.1,15.5c0,8.2-4.2,14.7-12.6,19.5c-8.4,4.8-20.8,7.2-37.2,7.2c-9,0-17-0.6-24-1.8
	c-7.1-1.2-13.6-2.8-19.4-4.9c-5.8-2.1-11.1-4.4-15.7-7.1c-4.6-2.7-9-5.5-12.9-8.5l-22.2,35.8c7.9,5.9,16.2,10.8,24.9,14.4
	s17.2,6.5,25.6,8.5c8.4,2.1,16.3,3.4,23.8,4.1c7.4,0.7,14,1,19.6,1c15.7,0,29.8-1.7,42.1-5.3c12.4-3.5,22.8-8.4,31.3-14.7
	c8.4-6.3,14.9-13.9,19.4-22.6c4.5-8.7,6.7-18.3,6.7-28.9C2138.3,372.6,2131.6,358.1,2118.2,347.6L2118.2,347.6z M1849.3,375.8
	c-3.2,8.5-7.7,15.9-13.5,22.2c-5.8,6.3-12.7,11.1-20.8,14.7c-8.1,3.6-17,5.3-26.9,5.3c-10.3,0-19.6-1.9-27.7-5.6
	c-8.2-3.8-15-8.7-20.7-15.1c-5.6-6.3-10-13.7-13-22.2c-3-8.5-4.5-17.5-4.5-27.2s1.5-18.6,4.5-27.2c3-8.5,7.4-16,13-22.2
	c5.6-6.3,12.6-11.3,20.7-15.1c8.2-3.8,17.4-5.6,27.7-5.6c9.9,0,18.8,1.8,26.9,5.3s14.9,8.4,20.8,14.7c5.8,6.3,10.3,13.6,13.5,22.2
	c3.2,8.5,4.8,17.8,4.8,27.9C1854.1,358.1,1852.5,367.3,1849.3,375.8L1849.3,375.8z M1851.1,265.1c-7.6-9.7-17-17.5-28.3-23.4
	c-11.3-5.8-24.8-8.8-40.4-8.8c-15.4,0-29.7,2.8-42.9,8.5c-13.2,5.7-24.8,13.6-34.7,23.8c-9.9,10.2-17.7,22.3-23.3,36.4
	s-8.4,29.5-8.4,46.2s2.8,32.1,8.4,46.2c5.6,14.1,13.4,26.2,23.3,36.5c9.9,10.2,21.4,18.1,34.7,23.8c13.3,5.7,27.6,8.5,42.9,8.5
	c15.7,0,29.2-2.9,40.4-8.7c11.3-5.8,20.7-13.6,28.3-23.3v26.2h47.7V238.5h-47.7V265.1z"/>
<path class="st1" d="M421.4,338.9c0-107.7,50.3-203.6,128.7-265.7C492.3,27.4,419.3,0,339.9,0C152.7,0,1,151.7,1,338.8
	C1,526,152.7,677.7,339.9,677.7c79.4,0,152.4-27.4,210.2-73.2C471.7,542.5,421.4,446.6,421.4,338.9L421.4,338.9z"/>
<path class="st2" d="M421.4,338.9c0,107.7,50.3,203.6,128.7,265.7c78.3-62.1,128.7-158,128.7-265.7S628.4,135.3,550.1,73.2
	C471.7,135.2,421.4,231.2,421.4,338.9z"/>
<path class="st3" d="M760.2,0C680.8,0,607.8,27.4,550,73.2c78.3,62.1,128.7,158,128.7,265.7S628.4,542.5,550,604.6
	c57.8,45.8,130.8,73.2,210.2,73.2c187.1,0,338.8-151.7,338.8-338.8S947.4,0,760.2,0L760.2,0z"/>
</svg>
