<?xml version="1.0" encoding="utf-8"?>
<!-- Generator: Adobe Illustrator 28.2.0, SVG Export Plug-In . SVG Version: 6.00 Build 0)  -->
<svg version="1.1"
	 id="Layer_1" text-rendering="geometricPrecision" image-rendering="optimizeQuality" shape-rendering="geometricPrecision"
	 xmlns="http://www.w3.org/2000/svg" xmlns:xlink="http://www.w3.org/1999/xlink" x="0px" y="0px" viewBox="0 0 4997.5 1532.2"
	 style="enable-background:new 0 0 4997.5 1532.2;" xml:space="preserve">
<style type="text/css">
	.st0{fill-rule:evenodd;clip-rule:evenodd;fill:#191E70;}
	.st1{fill-rule:evenodd;clip-rule:evenodd;fill:#F7B600;}
</style>
<g id="Layer_x0020_1">
	<g id="_364834240">
		<path class="st0" d="M1760.5,1510.2l253-1484.4h404.6L2165,1510.2H1760.5z M3632.5,62.3C3552.3,32.2,3426.7,0,3269.8,0
			c-399.8,0-681.4,201.3-683.8,489.9c-2.3,213.2,201.1,332.3,354.5,403.3c157.5,72.7,210.4,119.1,209.7,184.1
			c-1,99.5-125.8,144.9-242.1,144.9c-161.9,0-248-22.5-380.9-77.9l-52.2-23.6l-56.8,332.3c94.5,41.5,269.3,77.4,450.7,79.2
			c425.3,0,701.4-199,704.6-507.1c1.5-168.9-106.3-297.4-339.7-403.3c-141.4-68.7-228.1-114.5-227.1-184
			c0-61.7,73.3-127.7,231.7-127.7c132.3-2.1,228.1,26.8,302.8,56.9l36.3,17.1L3632.5,62.3L3632.5,62.3z M4670,27.2h-312.7
			c-96.9,0-169.4,26.5-211.9,123.2l-600.9,1360.3h424.9c0,0,69.5-182.9,85.2-223c46.4,0,459.2,0.6,518.2,0.6
			c12.1,52,49.2,222.4,49.2,222.4l375.5,0L4670,27.2L4670,27.2z M4171.1,984c33.5-85.5,161.2-414.9,161.2-414.9
			c-2.4,3.9,33.2-85.9,53.6-141.7l27.4,127.9c0,0,77.4,354.4,93.6,428.7L4171.1,984L4171.1,984z M1421.2,26.8l-396.1,1012.3
			l-42.2-205.7c-73.7-237.2-303.5-494.1-560.4-622.7l362.2,1298.2l428.1-0.5l637-1481.6H1421.2z"/>
		<path class="st1" d="M657.6,26H5.2L0,56.8c507.6,122.8,843.4,419.8,982.9,776.6L841,151.3C816.5,57.3,745.5,29.2,657.6,26z"/>
	</g>
</g>
</svg>
